<svg width="214" height="227" viewBox="0 0 214 227" fill="none" xmlns="http://www.w3.org/2000/svg">
<path d="M211.09 79.0938H203.766C202.398 73.9505 199.534 68.4492 195.172 62.5898C190.875 56.7305 186.741 53.5078 182.77 52.9219C180.751 52.6615 178.342 52.4661 175.543 52.3359C172.809 52.2057 169.684 52.1406 166.168 52.1406H142.926V107.805H158.844C163.661 107.805 167.405 107.316 170.074 106.34C172.743 105.298 175.022 103.736 176.91 101.652C178.212 100.22 179.384 98.0065 180.426 95.0117C181.533 91.9518 182.249 88.6966 182.574 85.2461H189.996V139.641H182.574C182.379 136.776 181.695 133.521 180.523 129.875C179.417 126.229 178.212 123.592 176.91 121.965C174.957 119.556 172.483 117.928 169.488 117.082C166.559 116.171 163.01 115.715 158.844 115.715H142.926V163.469C142.926 165.617 143.349 167.538 144.195 169.23C145.042 170.923 146.539 172.29 148.688 173.332C149.664 173.788 151.78 174.341 155.035 174.992C158.29 175.643 160.764 176.001 162.457 176.066V183H102.398V176.066C104.352 175.936 106.956 175.741 110.211 175.48C113.466 175.155 115.582 174.764 116.559 174.309C118.512 173.462 119.911 172.225 120.758 170.598C121.669 168.905 122.125 166.887 122.125 164.543V64.543C122.125 62.3945 121.767 60.5065 121.051 58.8789C120.335 57.1862 118.837 55.819 116.559 54.7773C114.801 53.931 112.424 53.1823 109.43 52.5312C106.5 51.8802 104.156 51.4896 102.398 51.3594V44.4258H211.09V79.0938Z" fill="url(#paint0_linear_82_2)"/>
<path d="M211.09 79.0938V80.0938H212.09V79.0938H211.09ZM203.766 79.0938L202.799 79.3507L202.997 80.0938H203.766V79.0938ZM195.172 62.5898L194.365 63.1812L194.37 63.187L195.172 62.5898ZM182.77 52.9219L182.915 51.9326L182.907 51.9313L182.898 51.9301L182.77 52.9219ZM175.543 52.3359L175.495 53.3348L175.497 53.3349L175.543 52.3359ZM142.926 52.1406V51.1406H141.926V52.1406H142.926ZM142.926 107.805H141.926V108.805H142.926V107.805ZM170.074 106.34L170.418 107.279L170.428 107.275L170.438 107.271L170.074 106.34ZM176.91 101.652L176.17 100.98L176.169 100.981L176.91 101.652ZM180.426 95.0117L179.485 94.6716L179.481 94.6832L180.426 95.0117ZM182.574 85.2461V84.2461H181.664L181.579 85.1522L182.574 85.2461ZM189.996 85.2461H190.996V84.2461H189.996V85.2461ZM189.996 139.641V140.641H190.996V139.641H189.996ZM182.574 139.641L181.577 139.709L181.64 140.641H182.574V139.641ZM180.523 129.875L179.567 130.165L179.569 130.173L179.571 130.181L180.523 129.875ZM176.91 121.965L177.691 121.34L177.687 121.335L176.91 121.965ZM169.488 117.082L169.191 118.037L169.204 118.041L169.216 118.044L169.488 117.082ZM142.926 115.715V114.715H141.926V115.715H142.926ZM144.195 169.23L145.09 168.783L144.195 169.23ZM148.688 173.332L148.251 174.232L148.258 174.235L148.265 174.238L148.688 173.332ZM155.035 174.992L154.839 175.973L155.035 174.992ZM162.457 176.066H163.457V175.104L162.495 175.067L162.457 176.066ZM162.457 183V184H163.457V183H162.457ZM102.398 183H101.398V184H102.398V183ZM102.398 176.066L102.332 175.069L101.398 175.131V176.066H102.398ZM110.211 175.48L110.291 176.477L110.301 176.476L110.31 176.476L110.211 175.48ZM116.559 174.309L116.161 173.391L116.148 173.397L116.136 173.402L116.559 174.309ZM120.758 170.598L119.877 170.124L119.874 170.13L119.871 170.136L120.758 170.598ZM121.051 58.8789L120.13 59.2685L120.133 59.2751L120.135 59.2816L121.051 58.8789ZM116.559 54.7773L116.125 55.6783L116.134 55.6827L116.143 55.6868L116.559 54.7773ZM109.43 52.5312L109.213 53.5074L109.217 53.5084L109.43 52.5312ZM102.398 51.3594H101.398V52.288L102.325 52.3566L102.398 51.3594ZM102.398 44.4258V43.4258H101.398V44.4258H102.398ZM211.09 44.4258H212.09V43.4258H211.09V44.4258ZM211.09 78.0938H203.766V80.0938H211.09V78.0938ZM204.732 78.8368C203.323 73.5343 200.385 67.9185 195.974 61.9927L194.37 63.187C198.682 68.9799 201.474 74.3668 202.799 79.3507L204.732 78.8368ZM195.978 61.9985C191.64 56.0829 187.298 52.5791 182.915 51.9326L182.624 53.9112C186.184 54.4365 190.11 57.3781 194.365 63.1812L195.978 61.9985ZM182.898 51.9301C180.844 51.6652 178.407 51.4681 175.589 51.337L175.497 53.3349C178.278 53.4642 180.658 53.6577 182.642 53.9137L182.898 51.9301ZM175.591 51.3371C172.837 51.2059 169.695 51.1406 166.168 51.1406V53.1406C169.672 53.1406 172.781 53.2055 175.495 53.3348L175.591 51.3371ZM166.168 51.1406H142.926V53.1406H166.168V51.1406ZM141.926 52.1406V107.805H143.926V52.1406H141.926ZM142.926 108.805H158.844V106.805H142.926V108.805ZM158.844 108.805C163.709 108.805 167.588 108.314 170.418 107.279L169.731 105.401C167.222 106.319 163.614 106.805 158.844 106.805V108.805ZM170.438 107.271C173.248 106.175 175.657 104.524 177.651 102.324L176.169 100.981C174.387 102.947 172.239 104.422 169.711 105.408L170.438 107.271ZM177.65 102.325C179.083 100.749 180.309 98.3913 181.37 95.3402L179.481 94.6832C178.459 97.6218 177.342 99.6908 176.17 100.98L177.65 102.325ZM181.366 95.3519C182.503 92.2076 183.237 88.8692 183.57 85.34L181.579 85.1522C181.261 88.5241 180.562 91.6961 179.485 94.6716L181.366 95.3519ZM182.574 86.2461H189.996V84.2461H182.574V86.2461ZM188.996 85.2461V139.641H190.996V85.2461H188.996ZM189.996 138.641H182.574V140.641H189.996V138.641ZM183.572 139.573C183.37 136.605 182.664 133.268 181.475 129.569L179.571 130.181C180.726 133.774 181.388 136.947 181.577 139.709L183.572 139.573ZM181.48 129.585C180.362 125.901 179.113 123.118 177.691 121.34L176.129 122.59C177.311 124.067 178.471 126.557 179.567 130.165L181.48 129.585ZM177.687 121.335C175.603 118.765 172.953 117.022 169.76 116.12L169.216 118.044C172.013 118.835 174.311 120.347 176.133 122.595L177.687 121.335ZM169.785 116.127C166.732 115.177 163.078 114.715 158.844 114.715V116.715C162.943 116.715 166.385 117.164 169.191 118.037L169.785 116.127ZM158.844 114.715H142.926V116.715H158.844V114.715ZM141.926 115.715V163.469H143.926V115.715H141.926ZM141.926 163.469C141.926 165.751 142.376 167.828 143.301 169.678L145.09 168.783C144.322 167.247 143.926 165.483 143.926 163.469H141.926ZM143.301 169.678C144.269 171.614 145.957 173.12 148.251 174.232L149.124 172.432C147.121 171.461 145.814 170.232 145.09 168.783L143.301 169.678ZM148.265 174.238C149.369 174.754 151.607 175.326 154.839 175.973L155.231 174.012C151.953 173.356 149.959 172.822 149.11 172.426L148.265 174.238ZM154.839 175.973C158.107 176.626 160.644 176.997 162.419 177.066L162.495 175.067C160.885 175.005 158.474 174.66 155.231 174.012L154.839 175.973ZM161.457 176.066V183H163.457V176.066H161.457ZM162.457 182H102.398V184H162.457V182ZM103.398 183V176.066H101.398V183H103.398ZM102.465 177.064C104.424 176.934 107.034 176.738 110.291 176.477L110.131 174.484C106.878 174.744 104.279 174.939 102.332 175.069L102.465 177.064ZM110.31 176.476C111.953 176.311 113.326 176.129 114.421 175.927C115.497 175.728 116.373 175.499 116.981 175.215L116.136 173.402C115.767 173.574 115.098 173.768 114.058 173.96C113.037 174.148 111.724 174.324 110.111 174.485L110.31 176.476ZM116.956 175.226C119.085 174.304 120.676 172.922 121.645 171.059L119.871 170.136C119.147 171.528 117.939 172.621 116.161 173.391L116.956 175.226ZM121.638 171.072C122.644 169.205 123.125 167.016 123.125 164.543H121.125C121.125 166.757 120.695 168.605 119.877 170.124L121.638 171.072ZM123.125 164.543V64.543H121.125V164.543H123.125ZM123.125 64.543C123.125 62.2841 122.748 60.2543 121.966 58.4762L120.135 59.2816C120.785 60.7588 121.125 62.5049 121.125 64.543H123.125ZM121.972 58.4893C121.127 56.4936 119.397 54.9753 116.974 53.8679L116.143 55.6868C118.278 56.6627 119.542 57.8788 120.13 59.2685L121.972 58.4893ZM116.992 53.8763C115.136 52.9825 112.675 52.2135 109.642 51.5541L109.217 53.5084C112.174 54.1511 114.466 54.8795 116.125 55.6783L116.992 53.8763ZM109.647 51.5551C106.698 50.8997 104.3 50.4975 102.472 50.3621L102.325 52.3566C104.012 52.4817 106.302 52.8607 109.213 53.5074L109.647 51.5551ZM103.398 51.3594V44.4258H101.398V51.3594H103.398ZM102.398 45.4258H211.09V43.4258H102.398V45.4258ZM210.09 44.4258V79.0938H212.09V44.4258H210.09Z" fill="black"/>
<path d="M106 179L120 170.5L127.5 163" stroke="url(#paint1_linear_82_2)" stroke-width="5"/>
<path d="M110.5 49L123.5 62.5" stroke="url(#paint2_linear_82_2)" stroke-width="5"/>
<path d="M142.285 114.543C142.285 126.327 140.072 136.548 135.645 145.207C131.217 153.866 125.456 160.962 118.359 166.496C111.198 172.03 103.158 176.164 94.2383 178.898C85.319 181.633 76.1068 183 66.6016 183H9.17969V176.066C11.0677 176.066 13.5091 175.904 16.5039 175.578C19.5638 175.188 21.582 174.764 22.5586 174.309C24.5117 173.462 25.9115 172.225 26.7578 170.598C27.6693 168.905 28.125 166.887 28.125 164.543V64.543C28.125 62.3294 27.7344 60.3438 26.9531 58.5859C26.237 56.8281 24.7721 55.4284 22.5586 54.3867C20.5404 53.4102 18.3594 52.694 16.0156 52.2383C13.6719 51.7826 11.6536 51.4896 9.96094 51.3594V44.4258H70.5078C78.8411 44.4258 87.0443 45.7279 95.1172 48.332C103.19 50.8711 110.221 54.3216 116.211 58.6836C124.349 64.4779 130.729 72.0625 135.352 81.4375C139.974 90.8125 142.285 101.848 142.285 114.543ZM118.359 114.445C118.359 105.135 117.122 96.737 114.648 89.25C112.174 81.6979 108.561 75.1224 103.809 69.5234C99.3164 64.1849 93.7826 59.9857 87.207 56.9258C80.6966 53.8659 73.4375 52.3359 65.4297 52.3359C62.7604 52.3359 59.7331 52.401 56.3477 52.5312C53.0273 52.5964 50.5534 52.6615 48.9258 52.7266V159.27C48.9258 165.194 50.651 169.296 54.1016 171.574C57.5521 173.853 62.8581 174.992 70.0195 174.992C78.2878 174.992 85.5143 173.527 91.6992 170.598C97.8841 167.668 102.897 163.599 106.738 158.391C110.775 152.922 113.704 146.607 115.527 139.445C117.415 132.219 118.359 123.885 118.359 114.445Z" fill="url(#paint3_linear_82_2)"/>
<path d="M118.359 166.496L118.971 167.287L118.974 167.285L118.359 166.496ZM9.17969 183H8.17969V184H9.17969V183ZM9.17969 176.066V175.066H8.17969V176.066H9.17969ZM16.5039 175.578L16.612 176.572L16.6213 176.571L16.6305 176.57L16.5039 175.578ZM22.5586 174.309L22.161 173.391L22.1483 173.397L22.1357 173.402L22.5586 174.309ZM26.7578 170.598L25.8773 170.124L25.8739 170.13L25.8706 170.136L26.7578 170.598ZM26.9531 58.5859L26.027 58.9632L26.0329 58.9778L26.0393 58.9921L26.9531 58.5859ZM22.5586 54.3867L22.123 55.2869L22.1328 55.2915L22.5586 54.3867ZM9.96094 51.3594H8.96094V52.2854L9.88424 52.3564L9.96094 51.3594ZM9.96094 44.4258V43.4258H8.96094V44.4258H9.96094ZM95.1172 48.332L94.8102 49.2838L94.8172 49.286L95.1172 48.332ZM116.211 58.6836L115.622 59.492L115.631 59.4982L116.211 58.6836ZM114.648 89.25L113.698 89.5613L113.699 89.5637L114.648 89.25ZM103.809 69.5234L103.043 70.1673L103.046 70.1706L103.809 69.5234ZM87.207 56.9258L86.7817 57.8308L86.7851 57.8324L87.207 56.9258ZM56.3477 52.5312L56.3673 53.5311L56.3767 53.5309L56.3861 53.5305L56.3477 52.5312ZM48.9258 52.7266L48.8858 51.7274L47.9258 51.7658V52.7266H48.9258ZM106.738 158.391L105.934 157.797L105.933 157.797L106.738 158.391ZM115.527 139.445L114.56 139.193L114.558 139.199L115.527 139.445ZM141.285 114.543C141.285 126.202 139.095 136.261 134.754 144.752L136.535 145.662C141.048 136.836 143.285 126.452 143.285 114.543H141.285ZM134.754 144.752C130.388 153.291 124.717 160.27 117.744 165.708L118.974 167.285C126.195 161.654 132.047 154.44 136.535 145.662L134.754 144.752ZM117.748 165.705C110.685 171.163 102.753 175.242 93.9452 177.942L94.5314 179.855C103.562 177.086 111.711 172.897 118.971 167.287L117.748 165.705ZM93.9452 177.942C85.1227 180.647 76.0093 182 66.6016 182V184C76.2042 184 85.5153 182.619 94.5314 179.855L93.9452 177.942ZM66.6016 182H9.17969V184H66.6016V182ZM10.1797 183V176.066H8.17969V183H10.1797ZM9.17969 177.066C11.1185 177.066 13.5997 176.9 16.612 176.572L16.3958 174.584C13.4185 174.908 11.0169 175.066 9.17969 175.066V177.066ZM16.6305 176.57C19.6684 176.182 21.8415 175.747 22.9815 175.215L22.1357 173.402C21.3225 173.782 19.4592 174.193 16.3773 174.586L16.6305 176.57ZM22.9562 175.226C25.0846 174.304 26.6762 172.922 27.645 171.059L25.8706 170.136C25.1468 171.528 23.9388 172.621 22.161 173.391L22.9562 175.226ZM27.6383 171.072C28.6436 169.205 29.125 167.016 29.125 164.543H27.125C27.125 166.757 26.6949 168.605 25.8773 170.124L27.6383 171.072ZM29.125 164.543V64.543H27.125V164.543H29.125ZM29.125 64.543C29.125 62.2105 28.713 60.0833 27.8669 58.1798L26.0393 58.9921C26.7558 60.6042 27.125 62.4484 27.125 64.543H29.125ZM27.8792 58.2086C27.0435 56.1574 25.3573 54.5985 22.9844 53.4819L22.1328 55.2915C24.187 56.2582 25.4304 57.4989 26.027 58.9632L27.8792 58.2086ZM22.9942 53.4866C20.8933 52.47 18.6295 51.7278 16.2065 51.2567L15.8248 53.2199C18.0892 53.6602 20.1874 54.3503 22.123 55.2869L22.9942 53.4866ZM16.2065 51.2567C13.8389 50.7963 11.7805 50.4964 10.0376 50.3623L9.88424 52.3564C11.5267 52.4828 13.5049 52.7688 15.8248 53.2199L16.2065 51.2567ZM10.9609 51.3594V44.4258H8.96094V51.3594H10.9609ZM9.96094 45.4258H70.5078V43.4258H9.96094V45.4258ZM70.5078 45.4258C78.735 45.4258 86.8347 46.711 94.8102 49.2837L95.4242 47.3803C87.2539 44.7447 78.9472 43.4258 70.5078 43.4258V45.4258ZM94.8172 49.286C102.801 51.797 109.732 55.2022 115.622 59.4919L116.8 57.8752C110.711 53.441 103.579 49.9452 95.4172 47.3781L94.8172 49.286ZM115.631 59.4982C123.628 65.192 129.902 72.646 134.455 81.8797L136.248 80.9953C131.556 71.479 125.07 63.7637 116.791 57.869L115.631 59.4982ZM134.455 81.8797C138.996 91.0908 141.285 101.969 141.285 114.543H143.285C143.285 101.727 140.952 90.5342 136.248 80.9953L134.455 81.8797ZM119.359 114.445C119.359 105.048 118.111 96.5408 115.598 88.9363L113.699 89.5637C116.134 96.9331 117.359 105.223 117.359 114.445H119.359ZM115.599 88.9387C113.088 81.2737 109.414 74.5818 104.571 68.8763L103.046 70.1706C107.708 75.663 111.261 82.1221 113.698 89.5613L115.599 88.9387ZM104.574 68.8796C99.9839 63.425 94.3313 59.1381 87.6289 56.0191L86.7851 57.8324C93.2338 60.8333 98.6489 64.9448 103.043 70.1673L104.574 68.8796ZM87.6324 56.0208C80.9745 52.8916 73.5678 51.3359 65.4297 51.3359V53.3359C73.3072 53.3359 80.4187 54.8402 86.7817 57.8308L87.6324 56.0208ZM65.4297 51.3359C62.7447 51.3359 59.7042 51.4014 56.3092 51.532L56.3861 53.5305C59.7619 53.4007 62.7761 53.3359 65.4297 53.3359V51.3359ZM56.3281 51.5314C53.0064 51.5966 50.524 51.6618 48.8858 51.7274L48.9657 53.7258C50.5827 53.6611 53.0483 53.5961 56.3673 53.5311L56.3281 51.5314ZM47.9258 52.7266V159.27H49.9258V52.7266H47.9258ZM47.9258 159.27C47.9258 165.373 49.71 169.873 53.5505 172.409L54.6526 170.74C51.5921 168.719 49.9258 165.015 49.9258 159.27H47.9258ZM53.5505 172.409C57.2453 174.849 62.7888 175.992 70.0195 175.992V173.992C62.9274 173.992 57.8589 172.857 54.6526 170.74L53.5505 172.409ZM70.0195 175.992C78.4055 175.992 85.7837 174.506 92.1273 171.501L91.2711 169.694C85.245 172.548 78.17 173.992 70.0195 173.992V175.992ZM92.1273 171.501C98.4526 168.505 103.598 164.333 107.543 158.984L105.933 157.797C102.196 162.865 97.3156 166.831 91.2711 169.694L92.1273 171.501ZM107.543 158.984C111.663 153.403 114.644 146.968 116.496 139.692L114.558 139.199C112.764 146.246 109.887 152.441 105.934 157.797L107.543 158.984ZM116.495 139.698C118.409 132.371 119.359 123.949 119.359 114.445H117.359C117.359 123.821 116.421 132.067 114.56 139.193L116.495 139.698Z" fill="black"/>
<path d="M23.6638 202.614C23.6638 204.058 23.3927 205.31 22.8503 206.37C22.308 207.431 21.6022 208.3 20.7329 208.978C19.8556 209.656 18.8707 210.163 17.7781 210.498C16.6855 210.833 15.557 211 14.3926 211H7.3584V210.151C7.58968 210.151 7.88875 210.131 8.25562 210.091C8.63045 210.043 8.87769 209.991 8.99731 209.935C9.23657 209.832 9.40804 209.68 9.51172 209.481C9.62337 209.273 9.6792 209.026 9.6792 208.739V196.489C9.6792 196.218 9.63135 195.975 9.53564 195.759C9.44792 195.544 9.26847 195.372 8.99731 195.245C8.75008 195.125 8.48291 195.038 8.1958 194.982C7.90869 194.926 7.66146 194.89 7.4541 194.874V194.025H14.8711C15.8919 194.025 16.8968 194.184 17.8857 194.503C18.8747 194.814 19.736 195.237 20.4697 195.771C21.4666 196.481 22.2482 197.41 22.8145 198.559C23.3807 199.707 23.6638 201.059 23.6638 202.614ZM20.7329 202.602C20.7329 201.462 20.5814 200.433 20.2783 199.516C19.9753 198.59 19.5326 197.785 18.9504 197.099C18.4001 196.445 17.7222 195.931 16.9167 195.556C16.1192 195.181 15.23 194.994 14.249 194.994C13.922 194.994 13.5512 195.002 13.1365 195.018C12.7297 195.026 12.4267 195.034 12.2273 195.042V208.093C12.2273 208.819 12.4386 209.321 12.8613 209.6C13.284 209.879 13.934 210.019 14.8113 210.019C15.8241 210.019 16.7094 209.84 17.467 209.481C18.2247 209.122 18.8388 208.623 19.3093 207.985C19.8038 207.315 20.1627 206.542 20.386 205.665C20.6173 204.779 20.7329 203.758 20.7329 202.602ZM40.0291 206L39.7061 211H25.6138V210.151C25.853 210.135 26.172 210.103 26.5708 210.055C26.9696 209.999 27.2288 209.943 27.3484 209.887C27.6036 209.768 27.7791 209.612 27.8748 209.421C27.9784 209.229 28.0303 208.986 28.0303 208.691V196.489C28.0303 196.226 27.9864 195.995 27.8987 195.795C27.811 195.588 27.6275 195.42 27.3484 195.293C27.1331 195.189 26.842 195.097 26.4751 195.018C26.1162 194.938 25.8291 194.89 25.6138 194.874V194.025H38.749V198.116H37.8518C37.6923 197.51 37.3454 196.868 36.811 196.19C36.2847 195.504 35.7822 195.129 35.3037 195.065C35.0565 195.034 34.7614 195.01 34.4185 194.994C34.0755 194.978 33.6847 194.97 33.2461 194.97H30.5784V201.717H32.4924C33.1065 201.717 33.5531 201.661 33.8323 201.549C34.1194 201.43 34.3706 201.234 34.5859 200.963C34.7614 200.732 34.9089 200.425 35.0286 200.042C35.1562 199.651 35.2399 199.284 35.2798 198.941H36.177V205.581H35.2798C35.2479 205.198 35.1602 204.795 35.0166 204.373C34.881 203.942 34.7375 203.631 34.5859 203.439C34.3387 203.128 34.0556 202.925 33.7366 202.829C33.4255 202.734 33.0108 202.686 32.4924 202.686H30.5784V207.782C30.5784 208.292 30.6143 208.695 30.686 208.99C30.7578 209.285 30.8974 209.509 31.1047 209.66C31.3121 209.812 31.5952 209.911 31.9541 209.959C32.313 209.999 32.8234 210.019 33.4854 210.019C33.7485 210.019 34.0955 210.019 34.5261 210.019C34.9568 210.019 35.3197 210.003 35.6147 209.971C35.9178 209.939 36.2288 209.883 36.5479 209.804C36.8748 209.716 37.1061 209.6 37.2417 209.457C37.6086 209.074 37.9914 208.496 38.3901 207.722C38.7969 206.941 39.0561 206.366 39.1677 206H40.0291ZM49.2405 211.395C48.2276 211.395 47.2546 211.195 46.3215 210.797C45.3964 210.398 44.575 209.824 43.8572 209.074C43.1474 208.324 42.5811 207.411 42.1584 206.334C41.7358 205.25 41.5244 204.03 41.5244 202.674C41.5244 201.318 41.7318 200.09 42.1465 198.989C42.5612 197.881 43.1354 196.928 43.8691 196.13C44.5949 195.341 45.4522 194.73 46.4412 194.3C47.4301 193.869 48.4868 193.654 49.6113 193.654C50.4487 193.654 51.2064 193.757 51.8843 193.965C52.5622 194.172 53.2082 194.463 53.8223 194.838L54.3127 194.025H55.2698L55.3774 200.078H54.3965C54.2689 199.488 54.0775 198.85 53.8223 198.164C53.5671 197.47 53.268 196.884 52.925 196.405C52.5422 195.863 52.0876 195.44 51.5613 195.137C51.0349 194.826 50.4328 194.671 49.7549 194.671C48.9813 194.671 48.2595 194.842 47.5896 195.185C46.9277 195.528 46.3534 196.034 45.8669 196.704C45.4044 197.35 45.0415 198.172 44.7783 199.169C44.5151 200.166 44.3835 201.278 44.3835 202.506C44.3835 203.591 44.5191 204.588 44.7903 205.497C45.0694 206.398 45.4642 207.192 45.9746 207.878C46.485 208.556 47.0872 209.086 47.781 209.469C48.4828 209.852 49.2644 210.043 50.1257 210.043C50.7717 210.043 51.3659 209.943 51.9082 209.744C52.4505 209.537 52.9211 209.265 53.3198 208.93C53.7186 208.58 54.0695 208.181 54.3726 207.734C54.6756 207.288 54.9229 206.801 55.1143 206.275L56.0115 206.705C55.3256 208.388 54.4164 209.592 53.2839 210.318C52.1514 211.036 50.8036 211.395 49.2405 211.395ZM71.2163 196.034C71.966 196.816 72.5522 197.761 72.9749 198.87C73.3975 199.97 73.6089 201.19 73.6089 202.53C73.6089 203.878 73.3936 205.102 72.9629 206.203C72.5322 207.303 71.9341 208.241 71.1685 209.014C70.4268 209.78 69.5654 210.37 68.5845 210.785C67.6035 211.199 66.5588 211.407 65.4502 211.407C64.2699 211.407 63.1772 211.187 62.1724 210.749C61.1755 210.302 60.3181 209.684 59.6003 208.895C58.8826 208.121 58.3163 207.184 57.9016 206.083C57.4949 204.975 57.2915 203.79 57.2915 202.53C57.2915 201.151 57.5068 199.922 57.9375 198.846C58.3682 197.761 58.9623 196.824 59.72 196.034C60.4696 195.253 61.3389 194.655 62.3279 194.24C63.3248 193.825 64.3656 193.618 65.4502 193.618C66.5747 193.618 67.6354 193.829 68.6323 194.252C69.6292 194.675 70.4906 195.269 71.2163 196.034ZM69.4338 208.069C69.8805 207.343 70.2035 206.522 70.4028 205.605C70.6102 204.688 70.7139 203.663 70.7139 202.53C70.7139 201.366 70.5982 200.297 70.3669 199.324C70.1436 198.351 69.8127 197.522 69.374 196.836C68.9354 196.158 68.3851 195.632 67.7231 195.257C67.0612 194.874 66.3035 194.683 65.4502 194.683C64.4932 194.683 63.6797 194.902 63.0098 195.341C62.3398 195.779 61.7935 196.365 61.3708 197.099C60.9721 197.801 60.673 198.622 60.4736 199.563C60.2822 200.505 60.1865 201.493 60.1865 202.53C60.1865 203.679 60.2902 204.715 60.4976 205.641C60.7049 206.566 61.0319 207.387 61.4785 208.105C61.9092 208.807 62.4515 209.357 63.1055 209.756C63.7594 210.147 64.541 210.342 65.4502 210.342C66.3035 210.342 67.0732 210.143 67.759 209.744C68.4449 209.345 69.0032 208.787 69.4338 208.069ZM92.271 211H87.7012C86.6883 209.413 85.7712 208.041 84.9497 206.885C84.1362 205.728 83.251 204.536 82.2939 203.308H80.5593V208.691C80.5593 208.97 80.6032 209.218 80.6909 209.433C80.7786 209.64 80.9661 209.8 81.2532 209.911C81.3967 209.967 81.6479 210.019 82.0068 210.067C82.3657 210.115 82.6688 210.143 82.916 210.151V211H75.7383V210.151C75.9297 210.135 76.2048 210.107 76.5637 210.067C76.9306 210.027 77.1858 209.975 77.3293 209.911C77.5686 209.808 77.7401 209.656 77.8438 209.457C77.9554 209.257 78.0112 209.002 78.0112 208.691V196.417C78.0112 196.138 77.9714 195.891 77.8916 195.676C77.8118 195.46 77.6244 195.297 77.3293 195.185C77.13 195.113 76.8708 195.049 76.5518 194.994C76.2327 194.93 75.9616 194.89 75.7383 194.874V194.025H83.574C84.2917 194.025 84.9657 194.1 85.5957 194.252C86.2257 194.396 86.796 194.631 87.3064 194.958C87.8009 195.277 88.1956 195.695 88.4907 196.214C88.7858 196.724 88.9333 197.342 88.9333 198.068C88.9333 198.722 88.8337 199.3 88.6343 199.803C88.4349 200.305 88.1398 200.74 87.749 201.107C87.3901 201.45 86.9595 201.749 86.457 202.004C85.9546 202.251 85.4003 202.462 84.7942 202.638C85.6316 203.747 86.3254 204.68 86.8757 205.437C87.434 206.195 88.1159 207.116 88.9214 208.201C89.2723 208.679 89.5873 209.034 89.8665 209.265C90.1536 209.489 90.4367 209.672 90.7158 209.816C90.9232 209.919 91.1824 209.999 91.4934 210.055C91.8044 210.111 92.0636 210.143 92.271 210.151V211ZM85.9785 198.343C85.9785 197.314 85.6834 196.501 85.0933 195.903C84.5031 195.297 83.6697 194.994 82.593 194.994H80.5593V202.279H82.1265C83.2271 202.279 84.1442 201.928 84.8779 201.226C85.6117 200.517 85.9785 199.556 85.9785 198.343ZM112.022 198.271H111.125C110.957 197.641 110.606 196.968 110.072 196.25C109.545 195.532 109.039 195.137 108.552 195.065C108.305 195.034 108.01 195.01 107.667 194.994C107.332 194.978 106.949 194.97 106.519 194.97H103.672V201.789H105.622C106.212 201.789 106.67 201.729 106.997 201.609C107.324 201.482 107.603 201.29 107.835 201.035C107.994 200.859 108.138 200.588 108.265 200.221C108.401 199.847 108.489 199.448 108.529 199.025H109.438V205.688H108.529C108.505 205.338 108.421 204.939 108.277 204.492C108.142 204.046 107.994 203.723 107.835 203.523C107.595 203.228 107.292 203.029 106.926 202.925C106.567 202.813 106.132 202.758 105.622 202.758H103.672V208.607C103.672 208.871 103.723 209.106 103.827 209.313C103.931 209.521 104.114 209.688 104.377 209.816C104.497 209.872 104.756 209.939 105.155 210.019C105.554 210.099 105.857 210.143 106.064 210.151V211H98.707V210.151C98.9463 210.135 99.2653 210.111 99.6641 210.079C100.063 210.039 100.322 209.991 100.442 209.935C100.681 209.832 100.852 209.68 100.956 209.481C101.068 209.273 101.124 209.026 101.124 208.739V196.489C101.124 196.226 101.08 195.995 100.992 195.795C100.904 195.588 100.721 195.42 100.442 195.293C100.226 195.189 99.9352 195.097 99.5684 195.018C99.2095 194.938 98.9224 194.89 98.707 194.874V194.025H112.022V198.271ZM120.958 211H113.314V210.151C113.529 210.135 113.84 210.111 114.247 210.079C114.654 210.047 114.941 209.999 115.108 209.935C115.371 209.832 115.563 209.692 115.682 209.517C115.802 209.333 115.862 209.082 115.862 208.763V196.465C115.862 196.186 115.818 195.955 115.73 195.771C115.642 195.58 115.435 195.42 115.108 195.293C114.869 195.197 114.566 195.109 114.199 195.03C113.84 194.942 113.545 194.89 113.314 194.874V194.025H120.958V194.874C120.711 194.882 120.416 194.914 120.073 194.97C119.73 195.018 119.431 195.081 119.176 195.161C118.872 195.257 118.669 195.412 118.565 195.628C118.462 195.843 118.41 196.082 118.41 196.345V208.631C118.41 208.895 118.466 209.13 118.577 209.337C118.697 209.537 118.896 209.696 119.176 209.816C119.343 209.879 119.614 209.951 119.989 210.031C120.372 210.103 120.695 210.143 120.958 210.151V211ZM140.505 194.874C140.282 194.882 139.939 194.946 139.477 195.065C139.014 195.185 138.683 195.309 138.484 195.436C138.197 195.636 138.001 196.018 137.897 196.585C137.802 197.151 137.754 197.869 137.754 198.738V211.167H136.713L126.425 197.279V206.035C126.425 207.016 126.485 207.77 126.604 208.296C126.732 208.823 126.924 209.198 127.179 209.421C127.362 209.596 127.741 209.76 128.315 209.911C128.889 210.063 129.268 210.143 129.452 210.151V211H122.489V210.151C122.705 210.135 123.067 210.059 123.578 209.923C124.088 209.78 124.407 209.652 124.535 209.541C124.814 209.317 125.005 208.978 125.109 208.524C125.213 208.061 125.265 207.276 125.265 206.167V197.805C125.265 197.438 125.201 197.071 125.073 196.704C124.946 196.337 124.774 196.054 124.559 195.855C124.272 195.592 123.881 195.368 123.386 195.185C122.9 194.994 122.505 194.89 122.202 194.874V194.025H127.047L136.594 206.969V198.894C136.594 197.905 136.53 197.147 136.402 196.621C136.274 196.086 136.091 195.731 135.852 195.556C135.628 195.404 135.262 195.257 134.751 195.113C134.249 194.97 133.866 194.89 133.603 194.874V194.025H140.505V194.874ZM149.31 211H141.666V210.151C141.881 210.135 142.192 210.111 142.599 210.079C143.006 210.047 143.293 209.999 143.46 209.935C143.723 209.832 143.915 209.692 144.034 209.517C144.154 209.333 144.214 209.082 144.214 208.763V196.465C144.214 196.186 144.17 195.955 144.082 195.771C143.995 195.58 143.787 195.42 143.46 195.293C143.221 195.197 142.918 195.109 142.551 195.03C142.192 194.942 141.897 194.89 141.666 194.874V194.025H149.31V194.874C149.063 194.882 148.768 194.914 148.425 194.97C148.082 195.018 147.783 195.081 147.528 195.161C147.225 195.257 147.021 195.412 146.917 195.628C146.814 195.843 146.762 196.082 146.762 196.345V208.631C146.762 208.895 146.818 209.13 146.929 209.337C147.049 209.537 147.248 209.696 147.528 209.816C147.695 209.879 147.966 209.951 148.341 210.031C148.724 210.103 149.047 210.143 149.31 210.151V211ZM162.003 203.212C162.362 203.611 162.625 204.05 162.792 204.528C162.968 204.999 163.055 205.549 163.055 206.179C163.055 207.678 162.501 208.914 161.393 209.887C160.284 210.86 158.908 211.347 157.265 211.347C156.508 211.347 155.75 211.231 154.992 211C154.235 210.761 153.581 210.474 153.031 210.139L152.516 211.012H151.559L151.392 205.198H152.361C152.56 205.916 152.791 206.566 153.054 207.148C153.326 207.722 153.681 208.26 154.119 208.763C154.534 209.233 155.016 209.608 155.567 209.887C156.125 210.167 156.771 210.306 157.505 210.306C158.055 210.306 158.533 210.234 158.94 210.091C159.355 209.947 159.69 209.744 159.945 209.481C160.2 209.218 160.388 208.91 160.507 208.56C160.635 208.201 160.699 207.79 160.699 207.327C160.699 206.649 160.507 206.019 160.125 205.437C159.742 204.847 159.171 204.4 158.414 204.097C157.895 203.89 157.301 203.663 156.631 203.416C155.961 203.16 155.383 202.921 154.897 202.698C153.94 202.267 153.194 201.705 152.66 201.011C152.133 200.309 151.87 199.396 151.87 198.271C151.87 197.625 152.002 197.023 152.265 196.465C152.528 195.907 152.903 195.408 153.389 194.97C153.852 194.555 154.398 194.232 155.028 194.001C155.658 193.761 156.316 193.642 157.002 193.642C157.784 193.642 158.482 193.761 159.096 194.001C159.718 194.24 160.284 194.519 160.794 194.838L161.285 194.025H162.242L162.338 199.659H161.369C161.193 199.013 160.994 198.395 160.771 197.805C160.555 197.215 160.272 196.68 159.921 196.202C159.578 195.739 159.16 195.372 158.665 195.101C158.171 194.822 157.564 194.683 156.847 194.683C156.089 194.683 155.443 194.926 154.909 195.412C154.374 195.899 154.107 196.493 154.107 197.195C154.107 197.929 154.279 198.539 154.622 199.025C154.965 199.504 155.463 199.898 156.117 200.209C156.699 200.489 157.269 200.732 157.828 200.939C158.394 201.139 158.94 201.354 159.467 201.585C159.945 201.793 160.404 202.028 160.842 202.291C161.289 202.554 161.676 202.861 162.003 203.212ZM182.77 211H175.724V210.151C175.916 210.135 176.191 210.111 176.55 210.079C176.916 210.047 177.168 209.999 177.303 209.935C177.542 209.84 177.718 209.696 177.83 209.505C177.941 209.305 177.997 209.05 177.997 208.739V202.698H170.018V208.607C170.018 208.887 170.062 209.122 170.149 209.313C170.245 209.505 170.429 209.672 170.7 209.816C170.835 209.887 171.075 209.959 171.417 210.031C171.768 210.103 172.044 210.143 172.243 210.151V211H165.197V210.151C165.388 210.135 165.663 210.111 166.022 210.079C166.389 210.047 166.64 209.999 166.776 209.935C167.015 209.84 167.191 209.696 167.302 209.505C167.414 209.305 167.47 209.05 167.47 208.739V196.489C167.47 196.234 167.418 196.003 167.314 195.795C167.211 195.58 167.031 195.412 166.776 195.293C166.561 195.189 166.297 195.097 165.986 195.018C165.683 194.938 165.42 194.89 165.197 194.874V194.025H172.243V194.874C172.02 194.882 171.744 194.918 171.417 194.982C171.098 195.045 170.859 195.105 170.7 195.161C170.429 195.257 170.245 195.416 170.149 195.64C170.062 195.863 170.018 196.106 170.018 196.369V201.633H177.997V196.489C177.997 196.234 177.945 196.003 177.842 195.795C177.738 195.58 177.558 195.412 177.303 195.293C177.088 195.189 176.825 195.097 176.514 195.018C176.211 194.938 175.947 194.89 175.724 194.874V194.025H182.77V194.874C182.547 194.882 182.272 194.918 181.945 194.982C181.626 195.045 181.387 195.105 181.227 195.161C180.956 195.257 180.772 195.416 180.677 195.64C180.589 195.863 180.545 196.106 180.545 196.369V208.607C180.545 208.887 180.589 209.122 180.677 209.313C180.772 209.505 180.956 209.672 181.227 209.816C181.363 209.887 181.602 209.959 181.945 210.031C182.296 210.103 182.571 210.143 182.77 210.151V211ZM199.447 206L199.124 211H185.031V210.151C185.271 210.135 185.59 210.103 185.988 210.055C186.387 209.999 186.646 209.943 186.766 209.887C187.021 209.768 187.197 209.612 187.292 209.421C187.396 209.229 187.448 208.986 187.448 208.691V196.489C187.448 196.226 187.404 195.995 187.316 195.795C187.228 195.588 187.045 195.42 186.766 195.293C186.551 195.189 186.259 195.097 185.893 195.018C185.534 194.938 185.247 194.89 185.031 194.874V194.025H198.167V198.116H197.269C197.11 197.51 196.763 196.868 196.229 196.19C195.702 195.504 195.2 195.129 194.721 195.065C194.474 195.034 194.179 195.01 193.836 194.994C193.493 194.978 193.102 194.97 192.664 194.97H189.996V201.717H191.91C192.524 201.717 192.971 201.661 193.25 201.549C193.537 201.43 193.788 201.234 194.003 200.963C194.179 200.732 194.326 200.425 194.446 200.042C194.574 199.651 194.657 199.284 194.697 198.941H195.594V205.581H194.697C194.665 205.198 194.578 204.795 194.434 204.373C194.299 203.942 194.155 203.631 194.003 203.439C193.756 203.128 193.473 202.925 193.154 202.829C192.843 202.734 192.428 202.686 191.91 202.686H189.996V207.782C189.996 208.292 190.032 208.695 190.104 208.99C190.175 209.285 190.315 209.509 190.522 209.66C190.73 209.812 191.013 209.911 191.372 209.959C191.73 209.999 192.241 210.019 192.903 210.019C193.166 210.019 193.513 210.019 193.944 210.019C194.374 210.019 194.737 210.003 195.032 209.971C195.335 209.939 195.646 209.883 195.965 209.804C196.292 209.716 196.524 209.6 196.659 209.457C197.026 209.074 197.409 208.496 197.808 207.722C198.214 206.941 198.474 206.366 198.585 206H199.447ZM211.744 203.212C212.103 203.611 212.366 204.05 212.534 204.528C212.709 204.999 212.797 205.549 212.797 206.179C212.797 207.678 212.243 208.914 211.134 209.887C210.026 210.86 208.65 211.347 207.007 211.347C206.249 211.347 205.492 211.231 204.734 211C203.976 210.761 203.323 210.474 202.772 210.139L202.258 211.012H201.301L201.133 205.198H202.102C202.302 205.916 202.533 206.566 202.796 207.148C203.067 207.722 203.422 208.26 203.861 208.763C204.276 209.233 204.758 209.608 205.308 209.887C205.867 210.167 206.513 210.306 207.246 210.306C207.797 210.306 208.275 210.234 208.682 210.091C209.097 209.947 209.432 209.744 209.687 209.481C209.942 209.218 210.129 208.91 210.249 208.56C210.377 208.201 210.44 207.79 210.44 207.327C210.44 206.649 210.249 206.019 209.866 205.437C209.483 204.847 208.913 204.4 208.156 204.097C207.637 203.89 207.043 203.663 206.373 203.416C205.703 203.16 205.125 202.921 204.638 202.698C203.681 202.267 202.936 201.705 202.401 201.011C201.875 200.309 201.612 199.396 201.612 198.271C201.612 197.625 201.743 197.023 202.007 196.465C202.27 195.907 202.645 195.408 203.131 194.97C203.594 194.555 204.14 194.232 204.77 194.001C205.4 193.761 206.058 193.642 206.744 193.642C207.525 193.642 208.223 193.761 208.837 194.001C209.459 194.24 210.026 194.519 210.536 194.838L211.027 194.025H211.984L212.079 199.659H211.11C210.935 199.013 210.736 198.395 210.512 197.805C210.297 197.215 210.014 196.68 209.663 196.202C209.32 195.739 208.901 195.372 208.407 195.101C207.912 194.822 207.306 194.683 206.588 194.683C205.831 194.683 205.185 194.926 204.65 195.412C204.116 195.899 203.849 196.493 203.849 197.195C203.849 197.929 204.02 198.539 204.363 199.025C204.706 199.504 205.205 199.898 205.859 200.209C206.441 200.489 207.011 200.732 207.569 200.939C208.136 201.139 208.682 201.354 209.208 201.585C209.687 201.793 210.145 202.028 210.584 202.291C211.031 202.554 211.417 202.861 211.744 203.212Z" fill="black"/>
<defs>
<linearGradient id="paint0_linear_82_2" x1="154" y1="0" x2="154" y2="227" gradientUnits="userSpaceOnUse">
<stop stop-color="#E9DA61"/>
<stop offset="0.536458" stop-color="#C8A147"/>
<stop offset="1" stop-color="#B58E41"/>
</linearGradient>
<linearGradient id="paint1_linear_82_2" x1="116.75" y1="163" x2="116.75" y2="179" gradientUnits="userSpaceOnUse">
<stop stop-color="#C09944"/>
<stop offset="1" stop-color="#BD9643"/>
</linearGradient>
<linearGradient id="paint2_linear_82_2" x1="117" y1="49" x2="117" y2="62.5" gradientUnits="userSpaceOnUse">
<stop stop-color="#DCC356"/>
<stop offset="1" stop-color="#D8BD54"/>
</linearGradient>
<linearGradient id="paint3_linear_82_2" x1="75" y1="0" x2="75" y2="227" gradientUnits="userSpaceOnUse">
<stop stop-color="#E9DA61"/>
<stop offset="0.536458" stop-color="#C8A147"/>
<stop offset="1" stop-color="#B58E41"/>
</linearGradient>
</defs>
</svg>
